<?xml version="1.0" standalone="no"?><!DOCTYPE svg PUBLIC "-//W3C//DTD SVG 1.1//EN" "http://www.w3.org/Graphics/SVG/1.1/DTD/svg11.dtd"><svg t="1741853399813" class="icon" viewBox="0 0 1024 1024" version="1.1" xmlns="http://www.w3.org/2000/svg" p-id="12590" xmlns:xlink="http://www.w3.org/1999/xlink" width="200" height="200"><path d="M812.7488 401.1008c-4.3008-32-10.7008-166.4-42.7008-209.1008-113.0496-89.6-256-85.2992-256-85.2992S371.2 102.4 258.048 192c-29.8496 42.7008-40.4992 177.1008-42.6496 209.1008l10.6496 196.2496v4.2496s40.5504 177.1008 57.6 206.9504c19.2 38.4 76.8 110.9504 123.7504 138.6496 19.2 10.7008 70.4 12.8 106.6496 12.8 40.5504 0 89.6-4.2496 106.7008-12.8 46.8992-23.4496 102.4-98.0992 123.6992-138.6496 17.1008-29.8496 57.6-206.9504 57.6-206.9504v-4.2496l10.7008-196.2496z" fill="#B71C1C" p-id="12591"></path><path d="M744.5504 618.6496c-10.7008 12.8-72.5504 132.3008-72.5504 132.3008s-10.6496 46.8992 0 89.6c10.6496 42.6496-10.6496 46.8992-10.6496 46.8992l-25.6 29.9008-46.9504-19.2H445.8496l-46.8992 19.2-25.6-29.9008s-19.2-4.2496-10.7008-46.8992c10.7008-42.7008 0-89.6 0-89.6s-72.4992-117.3504-83.2-132.3008c-10.6496-12.8-17.0496-59.6992-17.0496-59.6992l25.6-74.7008L281.6 258.1504s19.2-29.9008 46.9504-49.1008c23.4496-17.0496 89.6-36.2496 89.6-36.2496l23.4496 166.4s6.4 36.2496 6.4 38.4c0 4.2496 23.4496 10.6496 23.4496 10.6496h87.5008s23.4496-6.4 23.4496-10.6496c0-4.2496 6.4-38.4 6.4-38.4l23.4496-166.4s66.1504 17.0496 89.6 36.2496c19.2 19.2 42.7008 49.1008 42.7008 49.1008l-6.4 224 25.6 74.6496c-2.1504 2.1504-8.5504 49.0496-19.2 61.8496z" fill="#FFC107" p-id="12592"></path><path d="M731.648 576l-12.8 6.3488c-25.6 14.9504-40.448 23.5008-51.2 27.7504-8.4992 8.5504-21.2992 8.5504-25.6 8.5504l-66.048 4.2496v8.5504-8.5504c-8.5504 0-19.2512-2.1504-25.6-12.8-2.1504-2.1504-6.4512-8.5504-14.9504-21.3504-4.3008-4.2496-14.9504-6.4-23.5008-6.4-8.4992 0-17.0496 0-23.4496 6.4-8.5504 12.8-12.8 17.1008-14.9504 21.3504a33.3312 33.3312 0 0 1-25.6 12.8l-68.2496-4.2496c-2.1504 0-14.9504 0-27.7504-8.5504a1103.872 1103.872 0 0 1-49.0496-27.7504l-14.9504-8.4992a14.3872 14.3872 0 0 1-8.4992-12.8c-2.1504-8.5504 4.2496-17.1008 6.4-19.2l27.6992-21.3504c2.1504-2.1504 12.8-6.4 23.5008-2.1504 4.2496 2.1504 8.4992 2.1504 14.8992 4.3008 25.6 8.4992 74.7008 27.6992 117.3504 29.8496h78.9504c44.8-2.1504 91.6992-21.3504 117.2992-29.8496 6.4-2.1504 10.7008-4.3008 14.9504-4.3008 8.5504-4.2496 21.3504 0 23.4496 2.1504l27.7504 21.3504a20.3776 20.3776 0 0 1 6.4 19.2c4.2496 6.4 0 10.6496-6.4 14.8992z" fill="#E8B006" p-id="12593"></path><path d="M546.0992 580.3008s12.8 19.2 17.1008 23.4496c4.2496 6.4 12.8 6.4 12.8 6.4l66.0992-4.2496s12.8 0 19.2-6.4c10.7008-4.3008 46.9504-25.6 64-36.3008 6.4-4.2496 0-10.6496 0-10.6496l-25.6-19.2s-4.2496-4.2496-10.6496 0c-19.2 6.4-78.9504 32-136.5504 36.2496-17.0496 2.1504-6.4 10.7008-6.4 10.7008z m-68.2496 0s-12.8 19.2-17.0496 23.4496c-4.3008 6.4-12.8 6.4-12.8 6.4l-66.1504-4.2496s-12.8 0-19.2-6.4c-10.6496-4.3008-46.9504-25.6-64-36.3008-6.4-4.2496 0-10.6496 0-10.6496l25.6-19.2s4.2496-4.2496 10.6496 0c19.2 6.4 78.9504 32 136.5504 36.2496 17.0496 2.1504 6.4 10.7008 6.4 10.7008z" fill="#81D4FA" p-id="12594"></path><path d="M588.8 590.8992h55.4496l53.3504-32-14.9504-23.4496c-21.2992 8.5504-64 25.6-108.8 32l14.9504 23.4496z m-138.6496-23.4496c-44.8-6.4-87.5008-23.4496-108.8-32l-14.9504 23.4496 53.3504 32H435.2l14.9504-23.4496z" fill="#E1F5FE" p-id="12595"></path><path d="M795.7504 599.4496h17.0496c6.4 0 12.8-6.4 12.8-12.8l6.4-170.6496a13.7728 13.7728 0 0 0-12.8-12.8h-6.4l-17.0496 196.2496zM211.2 401.0496H204.8a13.7728 13.7728 0 0 0-12.8 12.8l6.4 170.6496c0 6.4 6.4 12.8 12.8 12.8h17.0496l-17.0496-196.2496z" fill="#851414" p-id="12596"></path></svg>